<svg xmlns="http://www.w3.org/2000/svg" viewBox="0 0 64 39.064"><defs><style>.a{fill:#00b2a5;}</style></defs><g transform="translate(-18 -30.47)"><path class="a" d="M79.19,50.15l-5.55-2.66L71.2,39.27a2.93,2.93,0,0,0-2.79-2.08H54.56v-5.8a.92.92,0,0,0-.92-.92H18.92a.92.92,0,0,0-.92.92V62.93a.92.92,0,0,0,.92.92h9.23a6.53,6.53,0,0,0,12.95,0H58.89a6.53,6.53,0,0,0,12.95,0h3.94a.91.91,0,0,0,.32.06h1.8A4.1,4.1,0,0,0,82,59.82v-5.2a5,5,0,0,0-2.81-4.47ZM68.4,39a1.07,1.07,0,0,1,1,.76L72,48.41a.93.93,0,0,0,.49.57l5.91,2.83a3.15,3.15,0,0,1,1.77,2.81v3.31h-.63A4.34,4.34,0,0,0,75.21,62H71.83v-.11a6.56,6.56,0,0,0-.23-1h0a6.551,6.551,0,0,0-.39-.9l-.08-.16a6.491,6.491,0,0,0-.52-.8l-.11-.14a6.37,6.37,0,0,0-.68-.73,6.46,6.46,0,0,0-5.48-1.63h-.1a6.47,6.47,0,0,0-1,.26h-.13a6.48,6.48,0,0,0-.89.41l-.14.08a6.5,6.5,0,0,0-.8.55H54.56V39Zm9.5,23H77a2.5,2.5,0,0,1,2.48-2.22h.63A2.25,2.25,0,0,1,77.91,62ZM59.27,60.69c0,.08-.07.17-.1.25a6.729,6.729,0,0,0-.22.88V62H54.56V59.78h5.11v.1a6.54,6.54,0,0,0-.4.81Zm-18.2,1.22a6.56,6.56,0,0,0-.25-1v-.1a6.55,6.55,0,0,0-.43-1H52.72V62H41.09A.412.412,0,0,1,41.07,61.91ZM19.85,32.32H52.72V57.94H38.71a6.53,6.53,0,0,0-.8-.55l-.14-.08a6.49,6.49,0,0,0-.88-.41h-.13a6.47,6.47,0,0,0-1-.26h-.1a6.17,6.17,0,0,0-2.11,0h-.1a6.5,6.5,0,0,0-1,.26h-.13a6.48,6.48,0,0,0-.89.41l-.13.07a6.5,6.5,0,0,0-.81.56H19.85Zm0,27.47h9.09v.1a6.54,6.54,0,0,0-.36.8c0,.08-.07.17-.1.25a6.73,6.73,0,0,0-.22.88q0,.09,0,.18H19.85Zm14.79,7.9a4.69,4.69,0,0,1-3.17-8.14,4.79,4.79,0,0,1,6.27,0l.07.05A4.68,4.68,0,0,1,39.33,63v.06h0a4.69,4.69,0,0,1-4.69,4.62Zm30.73,0a4.69,4.69,0,0,1-3.16-8.14,4.79,4.79,0,0,1,6.34,0,4.68,4.68,0,0,1,1.52,3.4v.06h0a4.7,4.7,0,0,1-4.71,4.67Z"/><path class="a" d="M58.61,49.07h9.07a.92.92,0,0,0,.88-1.18l-1.5-5.07a.92.92,0,0,0-.88-.66H58.61a.92.92,0,0,0-.92.92v5.07a.92.92,0,0,0,.92.92ZM59.53,44h6l1,3.23h-7Z"/><path class="a" d="M31.76,34.71a.92.92,0,0,0-.92-.92H23a.925.925,0,1,0,0,1.85h7.79a.92.92,0,0,0,.97-.93Z"/></g></svg>