<?xml version="1.0" encoding="utf-8" ?>
<svg xmlns="http://www.w3.org/2000/svg" xmlns:xlink="http://www.w3.org/1999/xlink" width="30" height="12">
	<defs>
		<clipPath id="clip_0">
			<rect x="-190" y="-180" width="1024" height="768" clip-rule="evenodd"/>
		</clipPath>
	</defs>
	<g clip-path="url(#clip_0)">
		<path fill="rgb(211,211,211)" stroke="none" transform="translate(10 11)" d="M0 0L10 0L10 1L0 1L0 0Z"/>
	</g>
	<defs>
		<clipPath id="clip_1">
			<rect x="-190" y="-180" width="1024" height="768" clip-rule="evenodd"/>
		</clipPath>
	</defs>
	<g clip-path="url(#clip_1)">
		<path fill="rgb(211,211,211)" stroke="none" transform="translate(10 8)" d="M0 0L20 0L20 1L0 1L0 0Z"/>
	</g>
	<defs>
		<clipPath id="clip_2">
			<rect x="-190" y="-180" width="1024" height="768" clip-rule="evenodd"/>
		</clipPath>
	</defs>
	<g clip-path="url(#clip_2)">
		<path fill="rgb(211,211,211)" stroke="none" transform="translate(0 3)" d="M0 0L10 0L10 1L0 1L0 0Z"/>
	</g>
	<defs>
		<clipPath id="clip_3">
			<rect x="-190" y="-180" width="1024" height="768" clip-rule="evenodd"/>
		</clipPath>
	</defs>
	<g clip-path="url(#clip_3)">
		<path fill="rgb(211,211,211)" stroke="none" d="M0 0L20 0L20 1L0 1L0 0Z"/>
	</g>
</svg>
