<svg xmlns="http://www.w3.org/2000/svg" viewBox="0 0 65.7 56.56"><defs><style>.a{fill:#f87f43;}</style></defs><g transform="translate(-17.15 -21.72)"><path class="a" d="M82,21.72H18a.85.85,0,0,0-.85.85V77.43a.85.85,0,0,0,.85.85H82a.85.85,0,0,0,.85-.85V22.57a.85.85,0,0,0-.85-.85ZM58.57,50,70.73,37.85v24.3ZM70.73,35.45,57.37,48.8,51.2,42.63,60,33.84H70.73ZM50,41.43l-7.58-7.58H57.58ZM81.15,72.57l-8.72-8.72V23.42h8.72ZM70.73,32.14h-30L32,23.42H70.73ZM41.43,50,29.27,62.16V37.84ZM57.58,66.16H42.41L50,58.57ZM48.8,57.37,40,66.16H29.27v-1.6L42.63,51.2l3.22,3.22Zm-29.95-30,8.72,8.72V76.58H18.85ZM29.27,76.58V67.86h30L68,76.58Zm51.88,0H70.41L47.3,53.47,43.24,49.4h0L29,35.19h0L18.94,25.11,18.85,25V23.42H29.58L39.76,33.59h0L81.15,75Z"/><path class="a" d="M73.12,74.71a2.4,2.4,0,1,0-2.4-2.4A2.4,2.4,0,0,0,73.12,74.71Zm0-3.09a.7.7,0,1,1-.7.7.7.7,0,0,1,.7-.7Z"/><path class="a" d="M27.63,25.29a2.4,2.4,0,1,0,2.4,2.4,2.4,2.4,0,0,0-2.4-2.4Zm0,3.09a.7.7,0,1,1,.69-.7.7.7,0,0,1-.69.7Z"/><path class="a" d="M76.79,30.08a2.4,2.4,0,1,0-2.4-2.4A2.4,2.4,0,0,0,76.79,30.08Zm0-3.09a.7.7,0,1,0,0,.01Z"/><path class="a" d="M23.21,69.92a2.4,2.4,0,1,0,2.4,2.4,2.4,2.4,0,0,0-2.4-2.4Zm0,3.09a.7.7,0,1,0,0-.01Z"/></g></svg>