<svg xmlns="http://www.w3.org/2000/svg" viewBox="0 0 64.082 58.199"><defs><style>.a{fill:#263238;}</style></defs><g transform="translate(-17.954 -20.904)"><path class="a" d="M50.68,60.41a1.183,1.183,0,0,0,1.22.68L78.54,52.8a1,1,0,0,0,.64-1.21L70.87,24.9a1,1,0,0,0-1.21-.64L48.18,31h0L43,32.56a1,1,0,0,0-.64,1.21Zm17-27.06-3.3,1L62.57,28.5l3.3-1ZM47.8,33.09,49.68,39a1,1,0,1,0,1.85-.58l-1.85-5.95,11-3.44,2.12,6.81a1.183,1.183,0,0,0,1.22.68l5.16-1.61a1,1,0,0,0,.64-1.21L67.7,26.89l1.59-.49L77,51.19,52.24,58.91,44.52,34.12Z"/><path class="a" d="M82,54.44a1,1,0,0,0-1.21-.64L49.87,63.41,37,22.23a1,1,0,0,0-1.21-.64l-2.51.78-.25-.79a1,1,0,0,0-1.21-.64l-11.6,3.61a3.22,3.22,0,1,0,1.91,6.15l11.6-3.61a1,1,0,0,0,.64-1.21l-.51-1.65,1.59-.49L48,63.77a7.72,7.72,0,1,0,4.84.76l28.52-8.88A1,1,0,0,0,82,54.44ZM21.6,28.86a1.283,1.283,0,1,1-.76-2.45l10.67-3.32.76,2.44ZM55,71.38a5.78,5.78,0,1,1-5.78-5.78A5.78,5.78,0,0,1,55,71.38Z"/><path class="a" d="M45.12,71.38a4.12,4.12,0,1,0,4.12-4.12A4.12,4.12,0,0,0,45.12,71.38Zm6.3,0a2.18,2.18,0,1,1-2.18-2.18A2.18,2.18,0,0,1,51.42,71.38Z"/></g></svg>