<svg xmlns="http://www.w3.org/2000/svg" viewBox="0 0 259 68">
  <defs>
    <style>
      .cls-1 {
        fill: rgba(59,59,59,0);
      }

      .cls-2 {
        fill: #f69348;
      }

      .cls-3 {
        fill: #003b54;
      }

      .cls-4 {
        fill: #d0d2d3;
      }

      .cls-5 {
        fill: #fff;
      }
    </style>
  </defs>
  <g id="small" transform="translate(-140 -43)">
    <rect id="Rectangle_5" data-name="Rectangle 5" class="cls-1" width="259" height="68" transform="translate(140 43)"/>
    <g id="shoe" transform="translate(213 -79)">
      <path id="Path_13" data-name="Path 13" class="cls-2" d="M65.536,166.28a19.788,19.788,0,0,1-21.165,0L34.979,160.3A1.938,1.938,0,0,0,32,161.938v29.843h98.331a11.972,11.972,0,0,0-7.08-7.569l-9.479-3.646a70.573,70.573,0,0,1-7.361-3.33L78.88,162.815a8.482,8.482,0,0,0-8.46.357Z" transform="translate(-24.937 -24.938)"/>
      <path id="Path_14" data-name="Path 14" class="cls-3" d="M100.848,152.683l-9.478-3.646a63.268,63.268,0,0,1-6.619-2.994L57.22,131.622a15.552,15.552,0,0,0-15.529.654l-4.884,3.108a12.692,12.692,0,0,1-13.582,0l-9.391-5.975A9,9,0,0,0,0,137v43.968A3.531,3.531,0,0,0,3.531,184.5H109.469A3.531,3.531,0,0,0,113,180.969V170.375A19.068,19.068,0,0,0,100.848,152.683ZM7.063,137a1.938,1.938,0,0,1,2.979-1.635l9.391,5.976a19.789,19.789,0,0,0,21.165,0l4.884-3.108a8.482,8.482,0,0,1,8.46-.357L81.474,152.3a70.545,70.545,0,0,0,7.361,3.33l9.479,3.646a11.972,11.972,0,0,1,7.08,7.569H7.063Zm98.875,40.437H7.063v-3.531h98.875Z"/>
      <rect id="Rectangle_41" data-name="Rectangle 41" class="cls-4" width="98.875" height="3.531" transform="translate(7.063 173.906)"/>
      <path id="Path_15" data-name="Path 15" class="cls-5" d="M299.362,248.925l12.309-12.309c-1.59-.688-3.159-1.436-4.688-2.236l-2.01-1.053-15.6,15.6Z" transform="translate(-225.509 -82.081)"/>
      <path id="Path_16" data-name="Path 16" class="cls-5" d="M219.362,227.494,237.6,209.26l-6.554-3.433-21.667,21.667Z" transform="translate(-163.165 -60.65)"/>
      <path id="Path_17" data-name="Path 17" class="cls-5" d="M139.362,206.063l23.988-23.988a3.53,3.53,0,0,0,.291-.329l-6.529-3.42-27.737,27.737Z" transform="translate(-100.822 -39.219)"/>
    </g>
  </g>
</svg>
